<svg viewBox="0 0 247 38" fill="none" xmlns="http://www.w3.org/2000/svg">
<g clip-path="url(#clip0_3715_24)">
<path d="M37.0025 3.69091C33.2628 3.90351 25.8298 4.67734 21.2412 7.49101C20.9245 7.68515 20.745 8.03037 20.745 8.39131V33.2652C20.745 34.0548 21.6069 34.5538 22.3337 34.1874C27.0547 31.8071 33.8824 31.1577 37.2584 30.98C38.411 30.9191 39.307 29.9936 39.307 28.8841V5.78955C39.3077 4.5789 38.2595 3.61982 37.0025 3.69091ZM18.0658 7.49101C13.4779 4.67734 6.04492 3.9042 2.30523 3.69091C1.04821 3.61982 0 4.5789 0 5.78955V28.8848C0 29.9949 0.896024 30.9205 2.04864 30.9807C5.42596 31.1584 12.257 31.8085 16.9781 34.1901C17.7028 34.5559 18.562 34.0575 18.562 33.27V8.379C18.562 8.01738 18.3832 7.68584 18.0658 7.49101Z" fill="#28A745"/>
</g>
<path d="M52.3663 30H50.0421V10.0117H61.171V12.0625H52.3663V19.3906H60.6378V21.4277H52.3663V30ZM66.4346 15.0156V30H64.1651V15.0156H66.4346ZM65.3272 9.41016C65.7009 9.41016 66.0199 9.5332 66.2842 9.7793C66.5577 10.0163 66.6944 10.39 66.6944 10.9004C66.6944 11.4017 66.5577 11.7754 66.2842 12.0215C66.0199 12.2676 65.7009 12.3906 65.3272 12.3906C64.9353 12.3906 64.6072 12.2676 64.3428 12.0215C64.0876 11.7754 63.96 11.4017 63.96 10.9004C63.96 10.39 64.0876 10.0163 64.3428 9.7793C64.6072 9.5332 64.9353 9.41016 65.3272 9.41016ZM78.3428 14.7422C80.1202 14.7422 81.4646 15.1797 82.376 16.0547C83.2875 16.9206 83.7432 18.3151 83.7432 20.2383V30H81.501V20.3887C81.501 19.14 81.2139 18.2057 80.6397 17.5859C80.0746 16.9661 79.2042 16.6562 78.0284 16.6562C76.3695 16.6562 75.2029 17.1257 74.5284 18.0645C73.8539 19.0033 73.5167 20.3659 73.5167 22.1523V30H71.2471V15.0156H73.0792L73.421 17.1758H73.544C73.863 16.6471 74.2686 16.2051 74.7608 15.8496C75.253 15.485 75.8044 15.2116 76.4151 15.0293C77.0258 14.8379 77.6684 14.7422 78.3428 14.7422ZM94.0245 14.7695C95.8109 14.7695 97.1371 15.1706 98.003 15.9727C98.8689 16.7747 99.3018 18.0553 99.3018 19.8145V30H97.6475L97.21 27.7852H97.1006C96.6814 28.332 96.2439 28.7923 95.7881 29.166C95.3324 29.5306 94.8038 29.8086 94.2022 30C93.6098 30.1823 92.8806 30.2734 92.0147 30.2734C91.1033 30.2734 90.2921 30.1139 89.5811 29.7949C88.8793 29.4759 88.3233 28.9928 87.9131 28.3457C87.5121 27.6986 87.3116 26.8783 87.3116 25.8848C87.3116 24.39 87.904 23.2415 89.0889 22.4395C90.2738 21.6374 92.0785 21.1999 94.503 21.127L97.087 21.0176V20.1016C97.087 18.8073 96.809 17.9004 96.253 17.3809C95.697 16.8613 94.9131 16.6016 93.9014 16.6016C93.1176 16.6016 92.3702 16.7155 91.6592 16.9434C90.9483 17.1712 90.2738 17.4401 89.6358 17.75L88.9385 16.0273C89.613 15.681 90.3878 15.3848 91.2628 15.1387C92.1378 14.8926 93.0583 14.7695 94.0245 14.7695ZM97.0596 22.6172L94.7764 22.7129C92.9079 22.7858 91.5909 23.0911 90.8253 23.6289C90.0596 24.1667 89.6768 24.9277 89.6768 25.9121C89.6768 26.7689 89.9366 27.4023 90.4561 27.8125C90.9756 28.2227 91.6638 28.4277 92.5206 28.4277C93.8513 28.4277 94.9405 28.0586 95.7881 27.3203C96.6358 26.582 97.0596 25.4746 97.0596 23.998V22.6172ZM111.073 14.7422C112.851 14.7422 114.195 15.1797 115.107 16.0547C116.018 16.9206 116.474 18.3151 116.474 20.2383V30H114.232V20.3887C114.232 19.14 113.944 18.2057 113.37 17.5859C112.805 16.9661 111.935 16.6562 110.759 16.6562C109.1 16.6562 107.933 17.1257 107.259 18.0645C106.584 19.0033 106.247 20.3659 106.247 22.1523V30H103.978V15.0156H105.81L106.151 17.1758H106.274C106.593 16.6471 106.999 16.2051 107.491 15.8496C107.983 15.485 108.535 15.2116 109.146 15.0293C109.756 14.8379 110.399 14.7422 111.073 14.7422ZM127.151 30.2734C125.802 30.2734 124.613 29.9954 123.583 29.4395C122.553 28.8835 121.751 28.0358 121.177 26.8965C120.603 25.7572 120.315 24.3216 120.315 22.5898C120.315 20.776 120.616 19.2949 121.218 18.1465C121.829 16.9889 122.667 16.1322 123.733 15.5762C124.8 15.0202 126.012 14.7422 127.37 14.7422C128.118 14.7422 128.838 14.8197 129.53 14.9746C130.232 15.1204 130.806 15.3073 131.253 15.5352L130.569 17.4355C130.114 17.2533 129.585 17.0892 128.983 16.9434C128.391 16.7975 127.835 16.7246 127.315 16.7246C126.276 16.7246 125.411 16.9479 124.718 17.3945C124.034 17.8411 123.519 18.4974 123.173 19.3633C122.836 20.2292 122.667 21.2956 122.667 22.5625C122.667 23.7747 122.831 24.8092 123.159 25.666C123.496 26.5228 123.993 27.179 124.649 27.6348C125.315 28.0814 126.144 28.3047 127.138 28.3047C127.931 28.3047 128.646 28.2227 129.284 28.0586C129.922 27.8854 130.501 27.6849 131.021 27.457V29.4805C130.519 29.7357 129.959 29.9316 129.339 30.0684C128.728 30.2051 127.999 30.2734 127.151 30.2734ZM140.345 14.7422C141.621 14.7422 142.715 15.0247 143.626 15.5898C144.537 16.1549 145.235 16.9479 145.718 17.9688C146.201 18.9805 146.442 20.1654 146.442 21.5234V22.9316H136.093C136.12 24.6908 136.558 26.0306 137.405 26.9512C138.253 27.8717 139.447 28.332 140.987 28.332C141.935 28.332 142.774 28.2454 143.503 28.0723C144.232 27.8991 144.989 27.6439 145.773 27.3066V29.3027C145.016 29.64 144.264 29.8861 143.517 30.041C142.778 30.196 141.903 30.2734 140.892 30.2734C139.452 30.2734 138.194 29.9818 137.118 29.3984C136.052 28.806 135.222 27.9401 134.63 26.8008C134.037 25.6615 133.741 24.2669 133.741 22.6172C133.741 21.0039 134.01 19.6094 134.548 18.4336C135.095 17.2487 135.86 16.3372 136.845 15.6992C137.838 15.0612 139.005 14.7422 140.345 14.7422ZM140.317 16.6016C139.105 16.6016 138.139 16.998 137.419 17.791C136.699 18.584 136.271 19.6914 136.134 21.1133H144.064C144.054 20.2201 143.913 19.4362 143.64 18.7617C143.375 18.0781 142.97 17.5495 142.423 17.1758C141.876 16.793 141.174 16.6016 140.317 16.6016Z" fill="#28A745"/>
<path d="M159.042 30V10.0117H161.366V27.9219H170.239V30H159.042ZM179.099 14.7422C180.375 14.7422 181.468 15.0247 182.38 15.5898C183.291 16.1549 183.989 16.9479 184.472 17.9688C184.955 18.9805 185.196 20.1654 185.196 21.5234V22.9316H174.847C174.874 24.6908 175.312 26.0306 176.159 26.9512C177.007 27.8717 178.201 28.332 179.741 28.332C180.689 28.332 181.528 28.2454 182.257 28.0723C182.986 27.8991 183.743 27.6439 184.526 27.3066V29.3027C183.77 29.64 183.018 29.8861 182.271 30.041C181.532 30.196 180.657 30.2734 179.646 30.2734C178.205 30.2734 176.948 29.9818 175.872 29.3984C174.806 28.806 173.976 27.9401 173.384 26.8008C172.791 25.6615 172.495 24.2669 172.495 22.6172C172.495 21.0039 172.764 19.6094 173.302 18.4336C173.849 17.2487 174.614 16.3372 175.599 15.6992C176.592 15.0612 177.759 14.7422 179.099 14.7422ZM179.071 16.6016C177.859 16.6016 176.893 16.998 176.173 17.791C175.453 18.584 175.024 19.6914 174.888 21.1133H182.817C182.808 20.2201 182.667 19.4362 182.394 18.7617C182.129 18.0781 181.724 17.5495 181.177 17.1758C180.63 16.793 179.928 16.6016 179.071 16.6016ZM194.384 30.2734C192.488 30.2734 190.984 29.6263 189.872 28.332C188.769 27.0378 188.218 25.1146 188.218 22.5625C188.218 19.9831 188.783 18.0371 189.913 16.7246C191.043 15.403 192.547 14.7422 194.425 14.7422C195.218 14.7422 195.911 14.847 196.503 15.0566C197.095 15.2663 197.606 15.5488 198.034 15.9043C198.463 16.2507 198.823 16.6471 199.114 17.0938H199.278C199.242 16.8112 199.205 16.4238 199.169 15.9316C199.133 15.4395 199.114 15.0384 199.114 14.7285V8.72656H201.384V30H199.552L199.21 27.8672H199.114C198.832 28.3138 198.472 28.7194 198.034 29.084C197.606 29.4486 197.091 29.7402 196.489 29.959C195.897 30.1686 195.195 30.2734 194.384 30.2734ZM194.739 28.3867C196.343 28.3867 197.478 27.931 198.144 27.0195C198.809 26.1081 199.142 24.7546 199.142 22.959V22.5488C199.142 20.6439 198.823 19.181 198.185 18.1602C197.556 17.1393 196.407 16.6289 194.739 16.6289C193.345 16.6289 192.301 17.1667 191.608 18.2422C190.916 19.3086 190.569 20.7669 190.569 22.6172C190.569 24.4583 190.911 25.8802 191.595 26.8828C192.287 27.8854 193.336 28.3867 194.739 28.3867ZM210.38 36.7266C208.411 36.7266 206.894 36.3574 205.827 35.6191C204.761 34.89 204.228 33.8646 204.228 32.543C204.228 31.6042 204.524 30.8021 205.116 30.1367C205.718 29.4714 206.547 29.0293 207.605 28.8105C207.213 28.6283 206.875 28.3548 206.593 27.9902C206.319 27.6257 206.183 27.2064 206.183 26.7324C206.183 26.1855 206.333 25.707 206.634 25.2969C206.944 24.8776 207.413 24.4766 208.042 24.0938C207.258 23.7747 206.62 23.237 206.128 22.4805C205.645 21.7148 205.403 20.8262 205.403 19.8145C205.403 18.7389 205.627 17.8229 206.073 17.0664C206.52 16.3008 207.167 15.7174 208.015 15.3164C208.862 14.9154 209.888 14.7148 211.091 14.7148C211.355 14.7148 211.62 14.7285 211.884 14.7559C212.157 14.7741 212.417 14.806 212.663 14.8516C212.909 14.888 213.123 14.9336 213.306 14.9883H218.446V16.4512L215.685 16.793C215.958 17.1484 216.186 17.5768 216.368 18.0781C216.551 18.5794 216.642 19.1354 216.642 19.7461C216.642 21.2409 216.136 22.4303 215.124 23.3145C214.112 24.1895 212.722 24.627 210.954 24.627C210.535 24.627 210.107 24.5905 209.669 24.5176C209.222 24.7637 208.881 25.0371 208.644 25.3379C208.416 25.6387 208.302 25.985 208.302 26.377C208.302 26.6686 208.388 26.901 208.562 27.0742C208.744 27.2474 209.004 27.375 209.341 27.457C209.678 27.5299 210.084 27.5664 210.558 27.5664H213.196C214.828 27.5664 216.077 27.9082 216.942 28.5918C217.817 29.2754 218.255 30.2734 218.255 31.5859C218.255 33.2448 217.58 34.5163 216.232 35.4004C214.883 36.2845 212.932 36.7266 210.38 36.7266ZM210.448 34.9492C211.688 34.9492 212.713 34.8216 213.524 34.5664C214.345 34.3203 214.955 33.9603 215.357 33.4863C215.767 33.0215 215.972 32.4655 215.972 31.8184C215.972 31.2168 215.835 30.7611 215.562 30.4512C215.288 30.1504 214.887 29.9499 214.358 29.8496C213.83 29.7402 213.183 29.6855 212.417 29.6855H209.819C209.145 29.6855 208.557 29.7904 208.056 30C207.554 30.2096 207.167 30.5195 206.894 30.9297C206.629 31.3398 206.497 31.8503 206.497 32.4609C206.497 33.2721 206.839 33.8874 207.523 34.3066C208.206 34.735 209.181 34.9492 210.448 34.9492ZM211.036 22.9727C212.121 22.9727 212.937 22.6992 213.483 22.1523C214.03 21.6055 214.304 20.8079 214.304 19.7598C214.304 18.6387 214.026 17.8001 213.47 17.2441C212.914 16.679 212.093 16.3965 211.009 16.3965C209.97 16.3965 209.168 16.6882 208.603 17.2715C208.047 17.8457 207.769 18.6888 207.769 19.8008C207.769 20.8216 208.051 21.6055 208.616 22.1523C209.181 22.6992 209.988 22.9727 211.036 22.9727ZM227.169 14.7422C228.445 14.7422 229.539 15.0247 230.45 15.5898C231.362 16.1549 232.059 16.9479 232.542 17.9688C233.025 18.9805 233.267 20.1654 233.267 21.5234V22.9316H222.917C222.944 24.6908 223.382 26.0306 224.23 26.9512C225.077 27.8717 226.271 28.332 227.812 28.332C228.76 28.332 229.598 28.2454 230.327 28.0723C231.056 27.8991 231.813 27.6439 232.597 27.3066V29.3027C231.84 29.64 231.088 29.8861 230.341 30.041C229.603 30.196 228.728 30.2734 227.716 30.2734C226.276 30.2734 225.018 29.9818 223.942 29.3984C222.876 28.806 222.047 27.9401 221.454 26.8008C220.862 25.6615 220.565 24.2669 220.565 22.6172C220.565 21.0039 220.834 19.6094 221.372 18.4336C221.919 17.2487 222.685 16.3372 223.669 15.6992C224.662 15.0612 225.829 14.7422 227.169 14.7422ZM227.142 16.6016C225.929 16.6016 224.963 16.998 224.243 17.791C223.523 18.584 223.095 19.6914 222.958 21.1133H230.888C230.879 20.2201 230.737 19.4362 230.464 18.7617C230.2 18.0781 229.794 17.5495 229.247 17.1758C228.7 16.793 227.998 16.6016 227.142 16.6016ZM243.931 14.7422C244.232 14.7422 244.546 14.7604 244.874 14.7969C245.202 14.8242 245.494 14.8652 245.749 14.9199L245.462 17.0254C245.216 16.9616 244.942 16.9115 244.642 16.875C244.341 16.8385 244.058 16.8203 243.794 16.8203C243.192 16.8203 242.623 16.9434 242.085 17.1895C241.556 17.4264 241.092 17.7728 240.69 18.2285C240.289 18.6751 239.975 19.2174 239.747 19.8555C239.519 20.4844 239.405 21.1862 239.405 21.9609V30H237.122V15.0156H239.009L239.255 17.7773H239.351C239.661 17.2214 240.034 16.7155 240.472 16.2598C240.909 15.7949 241.415 15.4258 241.989 15.1523C242.573 14.8789 243.22 14.7422 243.931 14.7422Z" fill="white"/>
<defs>
<clipPath id="clip0_3715_24">
<rect width="39.3077" height="35" fill="white" transform="translate(0 1.5)"/>
</clipPath>
</defs>
</svg>
